# Blender v2.93.3 OBJ File: 'window.blend'
# www.blender.org
o Cube
v -0.230000 0.980000 0.040000
v -0.230000 -0.980000 0.040000
v -0.230000 0.980000 -0.040000
v -0.230000 -0.980000 -0.040000
v 0.230000 0.980000 0.040000
v 0.230000 -0.980000 0.040000
v 0.230000 0.980000 -0.040000
v 0.230000 -0.980000 -0.040000
v -0.300000 -1.050000 0.040000
v 0.300000 -1.050000 0.040000
v -0.300000 1.050000 0.040000
v 0.300000 1.050000 0.040000
v 0.300000 -1.050000 -0.040000
v 0.300000 1.050000 -0.040000
v -0.300000 1.050000 -0.040000
v -0.300000 -1.050000 -0.040000
v 0.300000 -1.050000 -0.040000
v 0.300000 1.050000 -0.040000
v -0.300000 1.050000 -0.040000
v -0.300000 -1.050000 -0.040000
v 0.230000 -0.980000 -0.010000
v 0.230000 0.980000 -0.010000
v 0.230000 -0.980000 0.010000
v 0.230000 0.980000 0.010000
v -0.230000 -0.980000 -0.010000
v -0.230000 0.980000 -0.010000
v -0.230000 -0.980000 0.010000
v -0.230000 0.980000 0.010000
vt 0.875000 0.500000
vt 0.625000 0.750000
vt 0.625000 0.500000
vt 0.616667 0.970833
vt 0.383333 0.279167
vt 0.616667 0.279167
vt 0.625000 0.000000
vt 0.375000 0.250000
vt 0.375000 0.000000
vt 0.375000 0.500000
vt 0.125000 0.750000
vt 0.125000 0.500000
vt 0.375000 0.750000
vt 0.383333 0.470833
vt 0.616667 0.470833
vt 0.625000 0.250000
vt nan nan
vt nan nan
vt nan nan
vt nan nan
vt nan nan
vt nan nan
vt 0.625000 1.000000
vt 0.625000 1.000000
vt 0.375000 0.750000
vt 0.375000 1.000000
vt 0.375000 1.000000
vt 0.383333 0.970833
vt 0.383333 0.779167
vt 0.625000 0.750000
vt 0.616667 0.779167
vt 0.625000 0.250000
vt 0.375000 0.500000
vt 0.375000 0.250000
vt 0.625000 0.750000
vt 0.375000 1.000000
vt 0.375000 0.750000
vt 0.875000 0.750000
vt nan nan
vt nan nan
vt nan nan
vt nan nan
vt nan nan
vt nan nan
vt 0.625000 0.500000
vt 0.625000 1.000000
vn 0.0000 1.0000 0.0000
vn -1.0000 0.0000 0.0000
vn 1.0000 0.0000 0.0000
vn 0.0000 -1.0000 0.0000
vn 0.0000 0.0000 1.0000
vn -0.0000 0.0000 -1.0000
s off
f 12/1/1 15/2/1 11/3/1
f 7/4/2 6/5/2 5/6/2
f 14/7/3 10/8/3 13/9/3
f 9/10/4 13/11/4 10/12/4
f 11/3/2 16/13/2 9/10/2
f 2/14/5 10/8/5 6/5/5
f 1/15/5 9/10/5 2/14/5
f 6/5/5 12/16/5 5/6/5
f 5/6/5 11/3/5 1/15/5
f 17/17/5 14/18/5 13/19/5
f 19/20/5 16/21/5 15/22/5
f 18/23/5 15/2/5 14/24/5
f 20/25/5 13/26/5 16/13/5
f 7/4/6 17/27/6 8/28/6
f 4/29/6 19/30/6 3/31/6
f 3/31/6 18/23/6 7/4/6
f 8/28/6 20/25/6 4/29/6
f 1/15/4 7/4/4 5/6/4
f 4/29/3 1/15/3 2/14/3
f 6/5/1 4/29/1 2/14/1
f 24/32/5 27/33/5 23/34/5
f 26/35/6 21/36/6 25/37/6
f 12/1/1 14/38/1 15/2/1
f 7/4/2 8/28/2 6/5/2
f 14/7/3 12/16/3 10/8/3
f 9/10/4 16/13/4 13/11/4
f 11/3/2 15/2/2 16/13/2
f 2/14/5 9/10/5 10/8/5
f 1/15/5 11/3/5 9/10/5
f 6/5/5 10/8/5 12/16/5
f 5/6/5 12/16/5 11/3/5
f 17/39/5 18/40/5 14/41/5
f 19/42/5 20/43/5 16/44/5
f 18/23/5 19/30/5 15/2/5
f 20/25/5 17/27/5 13/26/5
f 7/4/6 18/23/6 17/27/6
f 4/29/6 20/25/6 19/30/6
f 3/31/6 19/30/6 18/23/6
f 8/28/6 17/27/6 20/25/6
f 1/15/4 3/31/4 7/4/4
f 4/29/3 3/31/3 1/15/3
f 6/5/1 8/28/1 4/29/1
f 24/32/5 28/45/5 27/33/5
f 26/35/6 22/46/6 21/36/6
